<?xml version="1.0" standalone="no"?>
<!DOCTYPE svg PUBLIC "-//W3C//DTD SVG 20010904//EN"
 "http://www.w3.org/TR/2001/REC-SVG-20010904/DTD/svg10.dtd">
<svg version="1.0" xmlns="http://www.w3.org/2000/svg"
 width="1024.000000pt" height="1024.000000pt" viewBox="0 0 1024.000000 1024.000000"
 preserveAspectRatio="xMidYMid meet">
<metadata>
Created by potrace 1.11, written by Peter Selinger 2001-2013
</metadata>
<g transform="translate(0.000000,1024.000000) scale(0.100000,-0.100000)"
fill="#000000" stroke="none">
<path d="M4837 10074 c-1 -1 -42 -4 -92 -7 -99 -7 -154 -16 -272 -46 -43 -11
-105 -23 -138 -26 -33 -3 -76 -8 -95 -11 -19 -3 -55 -7 -79 -10 -62 -8 -250
-66 -351 -109 -118 -50 -310 -157 -365 -202 -25 -21 -115 -71 -165 -92 -196
-83 -323 -179 -435 -329 -35 -47 -82 -91 -155 -145 -112 -83 -214 -177 -277
-254 -21 -27 -41 -49 -45 -51 -5 -2 -8 -10 -8 -18 0 -8 -3 -14 -7 -14 -5 0
-16 -15 -27 -33 -10 -17 -28 -48 -39 -67 -41 -71 -68 -133 -103 -238 -20 -60
-57 -142 -84 -187 -63 -105 -95 -170 -135 -274 -32 -83 -81 -253 -90 -316 -3
-16 -9 -57 -14 -90 -20 -135 4 -886 34 -1065 2 -14 7 -45 10 -70 13 -98 43
-257 65 -345 6 -22 13 -50 15 -62 3 -12 9 -33 14 -45 17 -46 -10 -118 -44
-118 -19 0 -129 -74 -164 -111 -103 -109 -162 -306 -161 -539 1 -122 1 -133
19 -250 19 -128 22 -144 31 -175 5 -16 12 -46 15 -65 30 -181 113 -381 218
-525 28 -38 95 -133 149 -210 135 -192 173 -230 257 -255 129 -38 178 -101
196 -250 3 -25 9 -60 14 -77 5 -18 8 -33 6 -33 -3 0 0 -11 5 -25 5 -14 12 -36
14 -48 16 -90 62 -256 92 -331 20 -50 75 -166 121 -258 199 -387 529 -738
1011 -1072 62 -43 113 -86 120 -101 10 -21 9 -40 -3 -93 -9 -37 -23 -77 -31
-91 -14 -21 -21 -23 -58 -17 -79 14 -142 9 -266 -17 -69 -15 -136 -29 -150
-32 -14 -3 -61 -12 -105 -21 -44 -8 -93 -18 -110 -20 -16 -3 -55 -12 -85 -19
-30 -8 -68 -16 -85 -19 -41 -8 -53 -10 -195 -45 -69 -16 -141 -33 -160 -36
-19 -3 -71 -12 -115 -20 -44 -8 -114 -17 -155 -20 -74 -7 -151 -32 -164 -54
-13 -21 54 -67 241 -163 382 -196 904 -395 1214 -463 12 -2 36 -9 53 -14 29
-9 231 -55 286 -65 14 -2 52 -9 85 -15 33 -6 76 -13 95 -16 19 -3 46 -7 60
-10 14 -2 45 -7 70 -10 25 -4 56 -8 70 -10 22 -3 87 -10 185 -21 38 -4 186
-14 290 -20 91 -5 511 -5 595 1 131 8 248 16 280 20 19 2 60 7 90 10 92 10
200 24 235 31 10 2 37 6 60 9 140 20 471 93 620 137 39 11 75 21 80 22 6 1 57
17 115 36 58 18 107 34 110 34 3 1 19 6 35 13 17 6 100 37 185 68 196 72 315
123 460 198 63 33 135 71 160 84 25 12 48 23 53 23 4 0 36 18 72 41 42 26 62
45 59 54 -3 8 -29 25 -57 39 -49 22 -73 28 -192 41 -169 20 -621 93 -673 109
-9 3 -33 8 -52 11 -19 3 -42 8 -50 10 -8 2 -31 7 -50 10 -19 3 -53 11 -75 17
-22 5 -51 12 -65 14 -14 3 -34 8 -45 11 -11 4 -22 7 -25 8 -26 5 -80 16 -100
21 -14 3 -87 7 -163 8 -133 1 -140 2 -158 25 -40 49 -55 170 -26 214 8 12 70
63 138 112 239 173 351 267 550 465 238 237 393 466 526 775 19 44 36 87 39
95 2 8 19 65 38 127 28 90 70 276 112 500 6 34 49 68 108 86 60 19 115 54 176
111 81 75 294 384 373 541 76 151 148 402 172 600 4 33 9 69 11 80 6 28 6 296
1 320 -3 11 -8 41 -11 66 -8 63 -52 207 -72 238 -10 14 -47 56 -84 92 -62 63
-122 99 -204 125 -53 17 -54 29 -8 201 24 87 45 169 48 183 6 31 30 163 39
210 3 19 8 42 10 50 2 8 7 35 10 60 4 25 13 77 22 115 11 53 15 140 14 365 0
317 -3 351 -57 510 -36 108 -64 233 -69 311 -16 257 -88 453 -263 719 -68 103
-176 217 -299 318 -43 36 -56 54 -78 115 -77 204 -156 335 -242 398 -64 48
-105 64 -128 52 -9 -5 -26 -27 -39 -48 l-23 -38 -31 44 c-105 152 -218 233
-505 363 -52 24 -89 18 -105 -17 -19 -38 -33 -42 -84 -19 -161 73 -257 103
-572 178 -276 66 -341 76 -431 61 -28 -5 -54 -1 -90 13 -86 33 -251 57 -438
63 -32 1 -59 2 -60 1z"/>
</g>
</svg>
